<svg width="28" height="15" viewBox="0 0 28 15" fill="none" xmlns="http://www.w3.org/2000/svg">
<g id="ifood-43 2" clip-path="url(#clip0_1050_1309)">
<path id="Vector" d="M0.498047 8.82327H2.5529L3.69475 3.14359H1.63963L0.498047 8.82327ZM1.75285 2.46617H3.8163L4.15542 0.766836H2.09277L1.75285 2.46617ZM3.35214 10.4215H5.40726L6.66287 4.28517H8.20407L8.43131 3.14359H6.91969L6.97697 2.88677C7.06249 2.4027 7.23379 1.85921 8.00426 1.85921C8.46143 1.85921 8.88929 1.88771 9.31715 2.08752L9.54574 0.888928C9.0689 0.720681 8.56718 0.633774 8.06154 0.631836C6.40604 0.631836 5.26473 1.60238 4.83633 3.14359H4.12288L3.89456 4.28517H4.60802L3.35214 10.4215Z" fill="#F59A1B"/>
<path id="Vector_2" d="M9.85975 8.93743C12.2857 8.93743 13.9697 6.73951 13.9697 4.94148C13.9697 3.60009 12.7424 3.02916 11.5438 3.02916C8.88867 3.02916 7.43379 5.39946 7.43379 7.02511C7.43379 8.3665 8.68966 8.93743 9.85975 8.93743ZM16.3677 8.93743C18.7937 8.93743 20.4777 6.73951 20.4777 4.94148C20.4777 3.60009 19.2218 3.02916 18.023 3.02916C15.3687 3.02916 13.9132 5.39812 13.9132 7.02511C13.9132 8.3665 15.1976 8.93743 16.3677 8.93743ZM23.8169 8.82314H25.8433L27.4982 0.74707H25.4434L24.958 3.14453L24.1017 3.05901C22.1039 3.05901 20.2773 5.62751 20.2773 7.45431C20.2773 8.19627 20.7614 8.9385 21.5902 8.9385C22.7603 8.9385 23.5881 8.36758 23.9299 7.79665H24.0439L23.8169 8.82314ZM17.4803 13.0759C15.8852 14.3975 13.8366 15.0428 11.7721 14.8739C9.06051 14.7026 7.11968 12.619 6.77734 10.4214H6.89137C7.51931 11.7929 9.03201 13.0759 10.8873 13.2754C12.7698 13.5038 15.0258 12.6478 16.2529 11.4774L14.883 10.4214H19.0215L18.1071 14.8169L17.5077 13.1044L17.4803 13.0759Z" fill="#F59A1B"/>
</g>
<defs>
<clipPath id="clip0_1050_1309">
<rect width="27" height="14.2686" fill="white" transform="translate(0.498047 0.631836)"/>
</clipPath>
</defs>
</svg>
